<svg id="visual" viewBox="0 0 960 540" width="960" height="540" xmlns="http://www.w3.org/2000/svg" xmlns:xlink="http://www.w3.org/1999/xlink" version="1.1"><rect x="0" y="0" width="960" height="540" fill="#e5e5e5"></rect><defs><linearGradient id="grad1_0" x1="43.8%" y1="0%" x2="100%" y2="100%"><stop offset="14.444444444444446%" stop-color="#ffb52c" stop-opacity="1"></stop><stop offset="85.55555555555554%" stop-color="#ffb52c" stop-opacity="1"></stop></linearGradient></defs><defs><linearGradient id="grad1_1" x1="43.8%" y1="0%" x2="100%" y2="100%"><stop offset="14.444444444444446%" stop-color="#ffb52c" stop-opacity="1"></stop><stop offset="85.55555555555554%" stop-color="#fdc571" stop-opacity="1"></stop></linearGradient></defs><defs><linearGradient id="grad1_2" x1="43.8%" y1="0%" x2="100%" y2="100%"><stop offset="14.444444444444446%" stop-color="#f5d5ab" stop-opacity="1"></stop><stop offset="85.55555555555554%" stop-color="#fdc571" stop-opacity="1"></stop></linearGradient></defs><defs><linearGradient id="grad1_3" x1="43.8%" y1="0%" x2="100%" y2="100%"><stop offset="14.444444444444446%" stop-color="#f5d5ab" stop-opacity="1"></stop><stop offset="85.55555555555554%" stop-color="#e5e5e5" stop-opacity="1"></stop></linearGradient></defs><defs><linearGradient id="grad2_0" x1="0%" y1="0%" x2="56.3%" y2="100%"><stop offset="14.444444444444446%" stop-color="#ffb52c" stop-opacity="1"></stop><stop offset="85.55555555555554%" stop-color="#ffb52c" stop-opacity="1"></stop></linearGradient></defs><defs><linearGradient id="grad2_1" x1="0%" y1="0%" x2="56.3%" y2="100%"><stop offset="14.444444444444446%" stop-color="#fdc571" stop-opacity="1"></stop><stop offset="85.55555555555554%" stop-color="#ffb52c" stop-opacity="1"></stop></linearGradient></defs><defs><linearGradient id="grad2_2" x1="0%" y1="0%" x2="56.3%" y2="100%"><stop offset="14.444444444444446%" stop-color="#fdc571" stop-opacity="1"></stop><stop offset="85.55555555555554%" stop-color="#f5d5ab" stop-opacity="1"></stop></linearGradient></defs><defs><linearGradient id="grad2_3" x1="0%" y1="0%" x2="56.3%" y2="100%"><stop offset="14.444444444444446%" stop-color="#e5e5e5" stop-opacity="1"></stop><stop offset="85.55555555555554%" stop-color="#f5d5ab" stop-opacity="1"></stop></linearGradient></defs><g transform="translate(960, 0)"><path d="M0 459C-34.2 434.1 -68.5 409.2 -107.4 400.9C-146.3 392.5 -189.9 400.8 -220 381.1C-250.1 361.3 -266.7 313.7 -273.7 273.7C-280.6 233.6 -277.9 201.2 -310.9 179.5C-343.9 157.8 -412.7 146.9 -443.4 118.8C-474 90.7 -466.5 45.3 -459 0L0 0Z" fill="#eeddc8"></path><path d="M0 344.3C-25.7 325.6 -51.4 306.9 -80.6 300.6C-109.7 294.4 -142.4 300.6 -165 285.8C-187.6 271 -200 235.3 -205.2 205.2C-210.4 175.2 -208.4 150.9 -233.2 134.6C-258 118.4 -309.5 110.2 -332.5 89.1C-355.5 68 -349.9 34 -344.2 0L0 0Z" fill="#facd8f"></path><path d="M0 229.5C-17.1 217 -34.2 204.6 -53.7 200.4C-73.2 196.3 -95 200.4 -110 190.5C-125 180.7 -133.4 156.8 -136.8 136.8C-140.3 116.8 -138.9 100.6 -155.5 89.8C-172 78.9 -206.4 73.5 -221.7 59.4C-237 45.3 -233.3 22.7 -229.5 0L0 0Z" fill="#ffbd52"></path><path d="M0 114.8C-8.6 108.5 -17.1 102.3 -26.9 100.2C-36.6 98.1 -47.5 100.2 -55 95.3C-62.5 90.3 -66.7 78.4 -68.4 68.4C-70.1 58.4 -69.5 50.3 -77.7 44.9C-86 39.5 -103.2 36.7 -110.8 29.7C-118.5 22.7 -116.6 11.3 -114.7 0L0 0Z" fill="#ffb52c"></path></g><g transform="translate(0, 540)"><path d="M0 -459C27.3 -414.6 54.7 -370.2 99.4 -370.9C144.1 -371.6 206.2 -417.5 229.5 -397.5C252.8 -377.5 237.5 -291.7 249.6 -249.6C261.8 -207.5 301.5 -209.3 336.9 -194.5C372.3 -179.7 403.4 -148.5 423.1 -113.4C442.7 -78.2 450.9 -39.1 459 0L0 0Z" fill="#eeddc8"></path><path d="M0 -344.2C20.5 -310.9 41 -277.6 74.5 -278.2C108.1 -278.7 154.6 -313.1 172.1 -298.1C189.6 -283.1 178.1 -218.8 187.2 -187.2C196.3 -155.7 226.1 -156.9 252.7 -145.9C279.2 -134.8 302.6 -111.4 317.3 -85C332 -58.7 338.1 -29.3 344.3 0L0 0Z" fill="#facd8f"></path><path d="M0 -229.5C13.7 -207.3 27.3 -185.1 49.7 -185.5C72 -185.8 103.1 -208.7 114.7 -198.8C126.4 -188.8 118.7 -145.8 124.8 -124.8C130.9 -103.8 150.7 -104.6 168.4 -97.3C186.2 -89.9 201.7 -74.3 211.5 -56.7C221.4 -39.1 225.4 -19.6 229.5 0L0 0Z" fill="#ffbd52"></path><path d="M0 -114.7C6.8 -103.6 13.7 -92.5 24.8 -92.7C36 -92.9 51.5 -104.4 57.4 -99.4C63.2 -94.4 59.4 -72.9 62.4 -62.4C65.4 -51.9 75.4 -52.3 84.2 -48.6C93.1 -44.9 100.9 -37.1 105.8 -28.3C110.7 -19.6 112.7 -9.8 114.8 0L0 0Z" fill="#ffb52c"></path></g></svg>