<svg id="visual" viewBox="0 0 540 960" width="540" height="960" xmlns="http://www.w3.org/2000/svg" xmlns:xlink="http://www.w3.org/1999/xlink" version="1.1"><rect x="0" y="0" width="540" height="960" fill="#e5e5e5"></rect><defs><linearGradient id="grad1_0" x1="0%" y1="0%" x2="100%" y2="100%"><stop offset="30%" stop-color="#43709d" stop-opacity="1"></stop><stop offset="70%" stop-color="#43709d" stop-opacity="1"></stop></linearGradient></defs><defs><linearGradient id="grad1_1" x1="0%" y1="0%" x2="100%" y2="100%"><stop offset="30%" stop-color="#43709d" stop-opacity="1"></stop><stop offset="70%" stop-color="#7c95b5" stop-opacity="1"></stop></linearGradient></defs><defs><linearGradient id="grad1_2" x1="0%" y1="0%" x2="100%" y2="100%"><stop offset="30%" stop-color="#b1bccd" stop-opacity="1"></stop><stop offset="70%" stop-color="#7c95b5" stop-opacity="1"></stop></linearGradient></defs><defs><linearGradient id="grad1_3" x1="0%" y1="0%" x2="100%" y2="100%"><stop offset="30%" stop-color="#b1bccd" stop-opacity="1"></stop><stop offset="70%" stop-color="#e5e5e5" stop-opacity="1"></stop></linearGradient></defs><defs><linearGradient id="grad2_0" x1="0%" y1="0%" x2="100%" y2="100%"><stop offset="30%" stop-color="#43709d" stop-opacity="1"></stop><stop offset="70%" stop-color="#43709d" stop-opacity="1"></stop></linearGradient></defs><defs><linearGradient id="grad2_1" x1="0%" y1="0%" x2="100%" y2="100%"><stop offset="30%" stop-color="#7c95b5" stop-opacity="1"></stop><stop offset="70%" stop-color="#43709d" stop-opacity="1"></stop></linearGradient></defs><defs><linearGradient id="grad2_2" x1="0%" y1="0%" x2="100%" y2="100%"><stop offset="30%" stop-color="#7c95b5" stop-opacity="1"></stop><stop offset="70%" stop-color="#b1bccd" stop-opacity="1"></stop></linearGradient></defs><defs><linearGradient id="grad2_3" x1="0%" y1="0%" x2="100%" y2="100%"><stop offset="30%" stop-color="#e5e5e5" stop-opacity="1"></stop><stop offset="70%" stop-color="#b1bccd" stop-opacity="1"></stop></linearGradient></defs><g transform="translate(540, 0)"><path d="M0 378C-27 350.5 -54 323 -83.1 310.1C-112.1 297.2 -143.2 298.9 -165 285.8C-186.8 272.7 -199.3 244.7 -229.1 229.1C-258.9 213.5 -305.9 210.4 -327.4 189C-348.8 167.6 -344.5 128 -348.7 93.4C-352.9 58.9 -365.4 29.4 -378 0L0 0Z" fill="#cbd0d9"></path><path d="M0 283.5C-20.3 262.9 -40.5 242.2 -62.3 232.5C-84.1 222.9 -107.4 224.2 -123.7 214.3C-140.1 204.5 -149.5 183.5 -171.8 171.8C-194.2 160.2 -229.5 157.8 -245.5 141.8C-261.6 125.7 -258.4 96 -261.5 70.1C-264.6 44.2 -274.1 22.1 -283.5 0L0 0Z" fill="#97a8c1"></path><path d="M0 189C-13.5 175.2 -27 161.5 -41.5 155C-56.1 148.6 -71.6 149.5 -82.5 142.9C-93.4 136.3 -99.7 122.3 -114.6 114.6C-129.4 106.8 -153 105.2 -163.7 94.5C-174.4 83.8 -172.3 64 -174.3 46.7C-176.4 29.4 -182.7 14.7 -189 0L0 0Z" fill="#6182a9"></path><path d="M0 94.5C-6.8 87.6 -13.5 80.7 -20.8 77.5C-28 74.3 -35.8 74.7 -41.2 71.4C-46.7 68.2 -49.8 61.2 -57.3 57.3C-64.7 53.4 -76.5 52.6 -81.8 47.3C-87.2 41.9 -86.1 32 -87.2 23.4C-88.2 14.7 -91.4 7.4 -94.5 0L0 0Z" fill="#43709d"></path></g><g transform="translate(0, 960)"><path d="M0 -378C24 -346.9 48 -315.9 84.6 -315.9C121.3 -315.9 170.7 -346.9 189 -327.4C207.3 -307.8 194.5 -237.6 202.2 -202.2C210 -166.9 238.2 -166.4 268.5 -155C298.7 -143.6 331.1 -121.3 349.7 -93.7C368.3 -66 373.1 -33 378 0L0 0Z" fill="#cbd0d9"></path><path d="M0 -283.5C18 -260.2 36 -236.9 63.5 -236.9C91 -236.9 128 -260.2 141.7 -245.5C155.5 -230.8 145.9 -178.2 151.7 -151.7C157.5 -125.2 178.6 -124.8 201.4 -116.3C224.1 -107.7 248.3 -91 262.2 -70.3C276.2 -49.5 279.8 -24.8 283.5 0L0 0Z" fill="#97a8c1"></path><path d="M0 -189C12 -173.5 24 -157.9 42.3 -157.9C60.7 -157.9 85.4 -173.5 94.5 -163.7C103.6 -153.9 97.3 -118.8 101.1 -101.1C105 -83.4 119.1 -83.2 134.2 -77.5C149.4 -71.8 165.5 -60.7 174.8 -46.8C184.1 -33 186.6 -16.5 189 0L0 0Z" fill="#6182a9"></path><path d="M0 -94.5C6 -86.7 12 -79 21.2 -79C30.3 -79 42.7 -86.7 47.2 -81.8C51.8 -76.9 48.6 -59.4 50.6 -50.6C52.5 -41.7 59.5 -41.6 67.1 -38.8C74.7 -35.9 82.8 -30.3 87.4 -23.4C92.1 -16.5 93.3 -8.3 94.5 0L0 0Z" fill="#43709d"></path></g></svg>