<svg id="visual" viewBox="0 0 540 960" width="540" height="960" xmlns="http://www.w3.org/2000/svg" xmlns:xlink="http://www.w3.org/1999/xlink" version="1.1"><rect x="0" y="0" width="540" height="960" fill="#e5e5e5"></rect><defs><linearGradient id="grad1_0" x1="0%" y1="0%" x2="100%" y2="100%"><stop offset="30%" stop-color="#2b9348" stop-opacity="1"></stop><stop offset="70%" stop-color="#2b9348" stop-opacity="1"></stop></linearGradient></defs><defs><linearGradient id="grad1_1" x1="0%" y1="0%" x2="100%" y2="100%"><stop offset="30%" stop-color="#2b9348" stop-opacity="1"></stop><stop offset="70%" stop-color="#72af7b" stop-opacity="1"></stop></linearGradient></defs><defs><linearGradient id="grad1_2" x1="0%" y1="0%" x2="100%" y2="100%"><stop offset="30%" stop-color="#accaaf" stop-opacity="1"></stop><stop offset="70%" stop-color="#72af7b" stop-opacity="1"></stop></linearGradient></defs><defs><linearGradient id="grad1_3" x1="0%" y1="0%" x2="100%" y2="100%"><stop offset="30%" stop-color="#accaaf" stop-opacity="1"></stop><stop offset="70%" stop-color="#e5e5e5" stop-opacity="1"></stop></linearGradient></defs><defs><linearGradient id="grad2_0" x1="0%" y1="0%" x2="100%" y2="100%"><stop offset="30%" stop-color="#2b9348" stop-opacity="1"></stop><stop offset="70%" stop-color="#2b9348" stop-opacity="1"></stop></linearGradient></defs><defs><linearGradient id="grad2_1" x1="0%" y1="0%" x2="100%" y2="100%"><stop offset="30%" stop-color="#72af7b" stop-opacity="1"></stop><stop offset="70%" stop-color="#2b9348" stop-opacity="1"></stop></linearGradient></defs><defs><linearGradient id="grad2_2" x1="0%" y1="0%" x2="100%" y2="100%"><stop offset="30%" stop-color="#72af7b" stop-opacity="1"></stop><stop offset="70%" stop-color="#accaaf" stop-opacity="1"></stop></linearGradient></defs><defs><linearGradient id="grad2_3" x1="0%" y1="0%" x2="100%" y2="100%"><stop offset="30%" stop-color="#e5e5e5" stop-opacity="1"></stop><stop offset="70%" stop-color="#accaaf" stop-opacity="1"></stop></linearGradient></defs><g transform="translate(540, 0)"><path d="M0 459C-30.6 409.7 -61.1 360.5 -90.8 339C-120.6 317.6 -149.4 324 -190.5 330C-231.6 335.9 -284.9 341.4 -324.6 324.6C-364.2 307.8 -390.1 268.7 -393.2 227C-396.2 185.3 -376.3 141 -383.5 102.8C-390.6 64.5 -424.8 32.2 -459 0L0 0Z" fill="#c9d8ca"></path><path d="M0 344.3C-22.9 307.3 -45.9 270.4 -68.1 254.3C-90.4 238.2 -112.1 243 -142.9 247.5C-173.7 251.9 -213.7 256 -243.4 243.4C-273.2 230.8 -292.6 201.5 -294.9 170.3C-297.2 139 -282.2 105.8 -287.6 77.1C-293 48.4 -318.6 24.2 -344.2 0L0 0Z" fill="#8fbd94"></path><path d="M0 229.5C-15.3 204.9 -30.6 180.2 -45.4 169.5C-60.3 158.8 -74.7 162 -95.2 165C-115.8 167.9 -142.5 170.7 -162.3 162.3C-182.1 153.9 -195.1 134.3 -196.6 113.5C-198.1 92.7 -188.2 70.5 -191.7 51.4C-195.3 32.2 -212.4 16.1 -229.5 0L0 0Z" fill="#52a161"></path><path d="M0 114.8C-7.6 102.4 -15.3 90.1 -22.7 84.8C-30.1 79.4 -37.4 81 -47.6 82.5C-57.9 84 -71.2 85.3 -81.1 81.1C-91.1 76.9 -97.5 67.2 -98.3 56.8C-99.1 46.3 -94.1 35.3 -95.9 25.7C-97.7 16.1 -106.2 8.1 -114.7 0L0 0Z" fill="#2b9348"></path></g><g transform="translate(0, 960)"><path d="M0 -459C27.2 -409.7 54.4 -360.5 96.3 -359.3C138.2 -358.2 194.8 -405.1 229.5 -397.5C264.2 -389.9 277 -327.8 280 -280C283 -232.3 276.1 -198.9 306.6 -177C337.1 -155.1 405 -144.6 436.6 -117C468.2 -89.4 463.6 -44.7 459 0L0 0Z" fill="#c9d8ca"></path><path d="M0 -344.2C20.4 -307.3 40.8 -270.4 72.2 -269.5C103.6 -268.6 146.1 -303.8 172.1 -298.1C198.2 -292.4 207.8 -245.8 210 -210C212.2 -174.2 207.1 -149.2 229.9 -132.8C252.8 -116.3 303.7 -108.4 327.4 -87.7C351.2 -67 347.7 -33.5 344.3 0L0 0Z" fill="#8fbd94"></path><path d="M0 -229.5C13.6 -204.9 27.2 -180.2 48.1 -179.7C69.1 -179.1 97.4 -202.6 114.7 -198.8C132.1 -195 138.5 -163.9 140 -140C141.5 -116.1 138 -99.5 153.3 -88.5C168.5 -77.5 202.5 -72.3 218.3 -58.5C234.1 -44.7 231.8 -22.3 229.5 0L0 0Z" fill="#52a161"></path><path d="M0 -114.7C6.8 -102.4 13.6 -90.1 24.1 -89.8C34.5 -89.5 48.7 -101.3 57.4 -99.4C66.1 -97.5 69.3 -81.9 70 -70C70.7 -58.1 69 -49.7 76.6 -44.3C84.3 -38.8 101.2 -36.1 109.1 -29.2C117.1 -22.3 115.9 -11.2 114.8 0L0 0Z" fill="#2b9348"></path></g></svg>