<svg id="visual" viewBox="0 0 540 960" width="540" height="960" xmlns="http://www.w3.org/2000/svg" xmlns:xlink="http://www.w3.org/1999/xlink" version="1.1"><rect x="0" y="0" width="540" height="960" fill="#e5e5e5"></rect><defs><linearGradient id="grad1_0" x1="0%" y1="0%" x2="100%" y2="100%"><stop offset="30%" stop-color="#a280ff" stop-opacity="1"></stop><stop offset="70%" stop-color="#a280ff" stop-opacity="1"></stop></linearGradient></defs><defs><linearGradient id="grad1_1" x1="0%" y1="0%" x2="100%" y2="100%"><stop offset="30%" stop-color="#a280ff" stop-opacity="1"></stop><stop offset="70%" stop-color="#bca1f7" stop-opacity="1"></stop></linearGradient></defs><defs><linearGradient id="grad1_2" x1="0%" y1="0%" x2="100%" y2="100%"><stop offset="30%" stop-color="#d2c3ef" stop-opacity="1"></stop><stop offset="70%" stop-color="#bca1f7" stop-opacity="1"></stop></linearGradient></defs><defs><linearGradient id="grad1_3" x1="0%" y1="0%" x2="100%" y2="100%"><stop offset="30%" stop-color="#d2c3ef" stop-opacity="1"></stop><stop offset="70%" stop-color="#e5e5e5" stop-opacity="1"></stop></linearGradient></defs><defs><linearGradient id="grad2_0" x1="0%" y1="0%" x2="100%" y2="100%"><stop offset="30%" stop-color="#a280ff" stop-opacity="1"></stop><stop offset="70%" stop-color="#a280ff" stop-opacity="1"></stop></linearGradient></defs><defs><linearGradient id="grad2_1" x1="0%" y1="0%" x2="100%" y2="100%"><stop offset="30%" stop-color="#bca1f7" stop-opacity="1"></stop><stop offset="70%" stop-color="#a280ff" stop-opacity="1"></stop></linearGradient></defs><defs><linearGradient id="grad2_2" x1="0%" y1="0%" x2="100%" y2="100%"><stop offset="30%" stop-color="#bca1f7" stop-opacity="1"></stop><stop offset="70%" stop-color="#d2c3ef" stop-opacity="1"></stop></linearGradient></defs><defs><linearGradient id="grad2_3" x1="0%" y1="0%" x2="100%" y2="100%"><stop offset="30%" stop-color="#e5e5e5" stop-opacity="1"></stop><stop offset="70%" stop-color="#d2c3ef" stop-opacity="1"></stop></linearGradient></defs><g transform="translate(540, 0)"><path d="M0 459C-17.7 389.5 -35.4 320 -74.3 325.6C-113.3 331.3 -173.4 412.1 -199.2 413.5C-224.9 415 -216.1 336.9 -247.5 310.4C-279 283.9 -350.6 308.8 -354.2 282.4C-357.8 256.1 -293.4 178.4 -292.8 141C-292.3 103.7 -355.5 106.7 -393.9 89.9C-432.2 73.1 -445.6 36.6 -459 0L0 0Z" fill="#dcd4ea"></path><path d="M0 344.3C-13.3 292.1 -26.5 240 -55.7 244.2C-84.9 248.5 -130.1 309.1 -149.4 310.2C-168.6 311.2 -162.1 252.7 -185.6 232.8C-209.2 212.9 -262.9 231.6 -265.6 211.8C-268.3 192.1 -220 133.8 -219.6 105.8C-219.2 77.7 -266.7 80 -295.4 67.4C-324.2 54.8 -334.2 27.4 -344.2 0L0 0Z" fill="#c8b2f3"></path><path d="M0 229.5C-8.8 194.7 -17.7 160 -37.2 162.8C-56.6 165.6 -86.7 206.1 -99.6 206.8C-112.4 207.5 -108.1 168.5 -123.8 155.2C-139.5 141.9 -175.3 154.4 -177.1 141.2C-178.9 128 -146.7 89.2 -146.4 70.5C-146.1 51.8 -177.8 53.3 -196.9 44.9C-216.1 36.6 -222.8 18.3 -229.5 0L0 0Z" fill="#b091fb"></path><path d="M0 114.8C-4.4 97.4 -8.8 80 -18.6 81.4C-28.3 82.8 -43.4 103 -49.8 103.4C-56.2 103.7 -54 84.2 -61.9 77.6C-69.7 71 -87.6 77.2 -88.5 70.6C-89.4 64 -73.3 44.6 -73.2 35.3C-73.1 25.9 -88.9 26.7 -98.5 22.5C-108.1 18.3 -111.4 9.1 -114.7 0L0 0Z" fill="#a280ff"></path></g><g transform="translate(0, 960)"><path d="M0 -459C30.7 -432.3 61.4 -405.7 89 -390C116.6 -374.3 141.1 -369.5 177 -367.6C212.9 -365.7 260.2 -366.7 267.5 -335.4C274.8 -304.1 242.1 -240.5 275.2 -219.5C308.3 -198.5 407.3 -220.1 413.5 -199.2C419.8 -178.2 333.5 -114.6 325.6 -74.3C317.8 -34 388.4 -17 459 0L0 0Z" fill="#dcd4ea"></path><path d="M0 -344.2C23 -324.3 46.1 -304.3 66.8 -292.5C87.5 -280.7 105.8 -277.1 132.8 -275.7C159.7 -274.3 195.1 -275 200.6 -251.6C206.1 -228.1 181.6 -180.3 206.4 -164.6C231.2 -148.9 305.4 -165.1 310.2 -149.4C314.9 -133.6 250.1 -86 244.2 -55.7C238.3 -25.5 291.3 -12.8 344.3 0L0 0Z" fill="#c8b2f3"></path><path d="M0 -229.5C15.4 -216.2 30.7 -202.8 44.5 -195C58.3 -187.1 70.6 -184.7 88.5 -183.8C106.5 -182.9 130.1 -183.4 133.7 -167.7C137.4 -152 121 -120.2 137.6 -109.7C154.2 -99.2 203.6 -110.1 206.8 -99.6C209.9 -89.1 166.7 -57.3 162.8 -37.2C158.9 -17 194.2 -8.5 229.5 0L0 0Z" fill="#b091fb"></path><path d="M0 -114.7C7.7 -108.1 15.4 -101.4 22.3 -97.5C29.2 -93.6 35.3 -92.4 44.3 -91.9C53.2 -91.4 65 -91.7 66.9 -83.9C68.7 -76 60.5 -60.1 68.8 -54.9C77.1 -49.6 101.8 -55 103.4 -49.8C105 -44.5 83.4 -28.7 81.4 -18.6C79.4 -8.5 97.1 -4.3 114.8 0L0 0Z" fill="#a280ff"></path></g></svg>