<svg id="visual" viewBox="0 0 960 540" width="960" height="540" xmlns="http://www.w3.org/2000/svg" xmlns:xlink="http://www.w3.org/1999/xlink" version="1.1"><rect x="0" y="0" width="960" height="540" fill="#e5e5e5"></rect><defs><linearGradient id="grad1_0" x1="43.8%" y1="0%" x2="100%" y2="100%"><stop offset="14.444444444444446%" stop-color="#fd576a" stop-opacity="1"></stop><stop offset="85.55555555555554%" stop-color="#fd576a" stop-opacity="1"></stop></linearGradient></defs><defs><linearGradient id="grad1_1" x1="43.8%" y1="0%" x2="100%" y2="100%"><stop offset="14.444444444444446%" stop-color="#fd576a" stop-opacity="1"></stop><stop offset="85.55555555555554%" stop-color="#fc8c91" stop-opacity="1"></stop></linearGradient></defs><defs><linearGradient id="grad1_2" x1="43.8%" y1="0%" x2="100%" y2="100%"><stop offset="14.444444444444446%" stop-color="#f5baba" stop-opacity="1"></stop><stop offset="85.55555555555554%" stop-color="#fc8c91" stop-opacity="1"></stop></linearGradient></defs><defs><linearGradient id="grad1_3" x1="43.8%" y1="0%" x2="100%" y2="100%"><stop offset="14.444444444444446%" stop-color="#f5baba" stop-opacity="1"></stop><stop offset="85.55555555555554%" stop-color="#e5e5e5" stop-opacity="1"></stop></linearGradient></defs><defs><linearGradient id="grad2_0" x1="0%" y1="0%" x2="56.3%" y2="100%"><stop offset="14.444444444444446%" stop-color="#fd576a" stop-opacity="1"></stop><stop offset="85.55555555555554%" stop-color="#fd576a" stop-opacity="1"></stop></linearGradient></defs><defs><linearGradient id="grad2_1" x1="0%" y1="0%" x2="56.3%" y2="100%"><stop offset="14.444444444444446%" stop-color="#fc8c91" stop-opacity="1"></stop><stop offset="85.55555555555554%" stop-color="#fd576a" stop-opacity="1"></stop></linearGradient></defs><defs><linearGradient id="grad2_2" x1="0%" y1="0%" x2="56.3%" y2="100%"><stop offset="14.444444444444446%" stop-color="#fc8c91" stop-opacity="1"></stop><stop offset="85.55555555555554%" stop-color="#f5baba" stop-opacity="1"></stop></linearGradient></defs><defs><linearGradient id="grad2_3" x1="0%" y1="0%" x2="56.3%" y2="100%"><stop offset="14.444444444444446%" stop-color="#e5e5e5" stop-opacity="1"></stop><stop offset="85.55555555555554%" stop-color="#f5baba" stop-opacity="1"></stop></linearGradient></defs><g transform="translate(960, 0)"><path d="M0 378C-24.5 349.2 -49 320.5 -85.7 319.7C-122.3 319 -171 346.2 -189 327.4C-207 308.5 -194.2 243.6 -217.1 217.1C-240 190.6 -298.5 202.6 -323.9 187C-349.2 171.4 -341.4 128.2 -344.8 92.4C-348.3 56.6 -363.2 28.3 -378 0L0 0Z" fill="#eed0cf"></path><path d="M0 283.5C-18.4 261.9 -36.8 240.4 -64.3 239.8C-91.7 239.2 -128.3 259.7 -141.7 245.5C-155.2 231.4 -145.6 182.7 -162.8 162.8C-180 143 -223.9 152 -242.9 140.3C-261.9 128.5 -256 96.1 -258.6 69.3C-261.2 42.5 -272.4 21.2 -283.5 0L0 0Z" fill="#faa4a5"></path><path d="M0 189C-12.3 174.6 -24.5 160.2 -42.8 159.9C-61.1 159.5 -85.5 173.1 -94.5 163.7C-103.5 154.3 -97.1 121.8 -108.5 108.5C-120 95.3 -149.3 101.3 -161.9 93.5C-174.6 85.7 -170.7 64.1 -172.4 46.2C-174.2 28.3 -181.6 14.2 -189 0L0 0Z" fill="#fd737d"></path><path d="M0 94.5C-6.1 87.3 -12.3 80.1 -21.4 79.9C-30.6 79.7 -42.8 86.6 -47.2 81.8C-51.7 77.1 -48.5 60.9 -54.3 54.3C-60 47.7 -74.6 50.7 -81 46.8C-87.3 42.8 -85.3 32 -86.2 23.1C-87.1 14.2 -90.8 7.1 -94.5 0L0 0Z" fill="#fd576a"></path></g><g transform="translate(0, 540)"><path d="M0 -378C22.4 -333.1 44.9 -288.1 73.5 -274.3C102.1 -260.5 137 -277.8 153.5 -265.9C170 -254 168.2 -212.8 200.1 -200.1C232 -187.4 297.6 -203.1 327.4 -189C357.1 -174.9 351.1 -131.2 353.5 -94.7C356 -58.3 367 -29.1 378 0L0 0Z" fill="#eed0cf"></path><path d="M0 -283.5C16.8 -249.8 33.7 -216.1 55.1 -205.7C76.6 -195.4 102.7 -208.3 115.1 -199.4C127.5 -190.5 126.2 -159.6 150.1 -150.1C174 -140.5 223.2 -152.3 245.5 -141.8C267.8 -131.2 263.3 -98.4 265.1 -71C267 -43.7 275.2 -21.9 283.5 0L0 0Z" fill="#faa4a5"></path><path d="M0 -189C11.2 -166.5 22.4 -144.1 36.8 -137.2C51.1 -130.3 68.5 -138.9 76.7 -132.9C85 -127 84.1 -106.4 100.1 -100.1C116 -93.7 148.8 -101.5 163.7 -94.5C178.6 -87.5 175.5 -65.6 176.8 -47.4C178 -29.1 183.5 -14.6 189 0L0 0Z" fill="#fd737d"></path><path d="M0 -94.5C5.6 -83.3 11.2 -72 18.4 -68.6C25.5 -65.1 34.2 -69.4 38.4 -66.5C42.5 -63.5 42.1 -53.2 50 -50C58 -46.8 74.4 -50.8 81.8 -47.3C89.3 -43.7 87.8 -32.8 88.4 -23.7C89 -14.6 91.7 -7.3 94.5 0L0 0Z" fill="#fd576a"></path></g></svg>